<svg width="18" height="18" viewBox="0 0 18 18" fill="none" xmlns="http://www.w3.org/2000/svg">
<path d="M7.49999 14.25C7.32475 14.2503 7.15493 14.1893 7.01999 14.0775C6.94405 14.0145 6.88127 13.9372 6.83526 13.85C6.78924 13.7627 6.7609 13.6672 6.75184 13.569C6.74278 13.4707 6.75319 13.3717 6.78248 13.2775C6.81176 13.1833 6.85934 13.0958 6.92249 13.02L10.2825 9L7.04249 4.9725C6.98019 4.89579 6.93367 4.80751 6.9056 4.71276C6.87752 4.618 6.86845 4.51864 6.87891 4.42036C6.88936 4.32209 6.91913 4.22686 6.96651 4.14013C7.01389 4.0534 7.07795 3.97689 7.15499 3.915C7.23259 3.84672 7.32347 3.79522 7.42191 3.76373C7.52036 3.73224 7.62425 3.72144 7.72707 3.732C7.82989 3.74256 7.92942 3.77427 8.01941 3.82512C8.10939 3.87597 8.1879 3.94487 8.24999 4.0275L11.8725 8.5275C11.9828 8.6617 12.0431 8.83003 12.0431 9.00375C12.0431 9.17747 11.9828 9.3458 11.8725 9.48L8.12249 13.98C8.04725 14.0708 7.95168 14.1425 7.84352 14.1894C7.73536 14.2363 7.61767 14.2571 7.49999 14.25Z" fill="#3366FF"/>
</svg>
