<svg width="18" height="18" viewBox="0 0 18 18" fill="none" xmlns="http://www.w3.org/2000/svg">
<g clip-path="url(#clip0_119_52)">
<path d="M7.49986 14.25C7.32462 14.2503 7.15479 14.1893 7.01985 14.0775C6.94391 14.0145 6.88113 13.9372 6.83512 13.85C6.78911 13.7627 6.76076 13.6672 6.7517 13.569C6.74265 13.4707 6.75306 13.3717 6.78234 13.2775C6.81162 13.1833 6.8592 13.0958 6.92235 13.02L10.2824 9L7.04236 4.9725C6.98006 4.89579 6.93353 4.80751 6.90546 4.71276C6.87738 4.618 6.86831 4.51864 6.87877 4.42036C6.88922 4.32209 6.919 4.22686 6.96638 4.14013C7.01376 4.0534 7.07781 3.97689 7.15486 3.915C7.23245 3.84672 7.32333 3.79522 7.42178 3.76373C7.52022 3.73224 7.62412 3.72144 7.72694 3.732C7.82976 3.74256 7.92928 3.77427 8.01927 3.82512C8.10926 3.87597 8.18776 3.94487 8.24986 4.0275L11.8724 8.5275C11.9827 8.6617 12.043 8.83003 12.043 9.00375C12.043 9.17747 11.9827 9.3458 11.8724 9.48L8.12236 13.98C8.04712 14.0708 7.95154 14.1425 7.84338 14.1894C7.73523 14.2363 7.61753 14.2571 7.49986 14.25Z" fill="#FF8C68"/>
</g>
<defs>
<clipPath id="clip0_119_52">
<rect width="18" height="18" fill="white"/>
</clipPath>
</defs>
</svg>
