<svg width="25" height="23" viewBox="0 0 25 23" fill="none" xmlns="http://www.w3.org/2000/svg">
<g clip-path="url(#clip0_5_13)">
<path fill-rule="evenodd" clip-rule="evenodd" d="M7.16391 20.8946L10.4143 21.7766V20.6232L10.6796 20.3519H12.5369V21.7087V22.6584H10.5469L8.09257 21.573L7.16391 20.8946Z" fill="#CDBDB2"/>
<path fill-rule="evenodd" clip-rule="evenodd" d="M17.7771 20.8946L14.5932 21.7766V20.6232L14.3278 20.3519H12.4705V21.7087V22.6584H14.4605L16.9147 21.573L17.7771 20.8946Z" fill="#CDBDB2"/>
<path fill-rule="evenodd" clip-rule="evenodd" d="M10.6796 18.3846L10.4143 20.6232L10.7459 20.3519H14.1952L14.5932 20.6232L14.3278 18.3846L13.7972 18.0453L11.1439 18.1132L10.6796 18.3846Z" fill="#393939"/>
<path fill-rule="evenodd" clip-rule="evenodd" d="M8.88857 3.2563L10.4805 7.05532L11.2103 18.1132H13.7972L14.5932 7.05532L16.0525 3.2563H8.88857Z" fill="#F89C35"/>
<path fill-rule="evenodd" clip-rule="evenodd" d="M1.9237 11.6006L0.066391 17.0956L4.70967 16.8242H7.69457V14.4499L7.56191 9.56545L6.89858 10.1082L1.9237 11.6006Z" fill="#F89D35"/>
<path fill-rule="evenodd" clip-rule="evenodd" d="M5.43927 12.2111L10.8785 12.3468L10.2816 15.1961L7.69458 14.5177L5.43927 12.2111Z" fill="#D87C30"/>
<path fill-rule="evenodd" clip-rule="evenodd" d="M5.43927 12.279L7.69458 14.4499V16.6208L5.43927 12.279Z" fill="#EA8D3A"/>
<path fill-rule="evenodd" clip-rule="evenodd" d="M7.69458 14.5177L10.3479 15.1961L11.2103 18.1132L10.6132 18.4524L7.69458 16.6885V14.5177Z" fill="#F89D35"/>
<path fill-rule="evenodd" clip-rule="evenodd" d="M7.69457 16.6886L7.16391 20.8946L10.6796 18.3846L7.69457 16.6886Z" fill="#EB8F35"/>
<path fill-rule="evenodd" clip-rule="evenodd" d="M10.8785 12.3468L11.2103 18.1132L10.2152 15.1622L10.8785 12.3468Z" fill="#EA8E3A"/>
<path fill-rule="evenodd" clip-rule="evenodd" d="M4.64328 16.7565L7.69458 16.6886L7.16392 20.8946L4.64328 16.7565Z" fill="#D87C30"/>
<path fill-rule="evenodd" clip-rule="evenodd" d="M1.52571 22.7263L7.16391 20.8946L4.64328 16.7565L0.066391 17.0956L1.52571 22.7263Z" fill="#EB8F35"/>
<path fill-rule="evenodd" clip-rule="evenodd" d="M10.4805 7.05532L7.6283 9.49755L5.43927 12.2111L10.8785 12.4147L10.4805 7.05532Z" fill="#E8821E"/>
<path fill-rule="evenodd" clip-rule="evenodd" d="M7.16391 20.8946L10.6796 18.3846L10.4143 20.5555V21.7766L8.02629 21.3016L7.16391 20.8946Z" fill="#DFCEC3"/>
<path fill-rule="evenodd" clip-rule="evenodd" d="M17.7771 20.8946L14.3278 18.3846L14.5932 20.5555V21.7766L16.9811 21.3016L17.7771 20.8946Z" fill="#DFCEC3"/>
<path fill-rule="evenodd" clip-rule="evenodd" d="M9.41922 13.5679L10.1489 15.1283L7.56191 14.4499L9.41922 13.5679Z" fill="#393939"/>
<path fill-rule="evenodd" clip-rule="evenodd" d="M1.45932 0.0679016L10.4805 7.05532L8.95496 3.2563L1.45932 0.0679016Z" fill="#E88F35"/>
<path fill-rule="evenodd" clip-rule="evenodd" d="M1.45932 0.0678406L0.265335 3.79902L0.928661 7.8694L0.464333 8.14076L1.12766 8.75131L0.596998 9.22619L1.32666 9.90459L0.862328 10.3116L1.92365 11.6684L6.89859 10.1081C9.33078 8.11814 10.5248 7.10055 10.4805 7.05532C10.4363 7.0101 7.42925 4.68094 1.45932 0.0678406Z" fill="#8E5A30"/>
<path fill-rule="evenodd" clip-rule="evenodd" d="M23.0173 11.6006L24.8746 17.0956L20.2314 16.8242H17.2465V14.4499L17.3791 9.56545L18.0425 10.1082L23.0173 11.6006Z" fill="#F89D35"/>
<path fill-rule="evenodd" clip-rule="evenodd" d="M19.5018 12.2111L14.0625 12.3468L14.6594 15.1961L17.2465 14.5177L19.5018 12.2111Z" fill="#D87C30"/>
<path fill-rule="evenodd" clip-rule="evenodd" d="M19.5018 12.279L17.2465 14.4499V16.6208L19.5018 12.279Z" fill="#EA8D3A"/>
<path fill-rule="evenodd" clip-rule="evenodd" d="M17.2465 14.5177L14.5932 15.1961L13.7308 18.1132L14.3278 18.4524L17.2465 16.6885V14.5177Z" fill="#F89D35"/>
<path fill-rule="evenodd" clip-rule="evenodd" d="M17.2465 16.6886L17.7771 20.8946L14.3278 18.4524L17.2465 16.6886Z" fill="#EB8F35"/>
<path fill-rule="evenodd" clip-rule="evenodd" d="M14.0625 12.3468L13.7308 18.1132L14.7258 15.1622L14.0625 12.3468Z" fill="#EA8E3A"/>
<path fill-rule="evenodd" clip-rule="evenodd" d="M20.2978 16.7565L17.2465 16.6886L17.7771 20.8946L20.2978 16.7565Z" fill="#D87C30"/>
<path fill-rule="evenodd" clip-rule="evenodd" d="M23.4153 22.7263L17.7771 20.8946L20.2978 16.7565L24.8746 17.0956L23.4153 22.7263Z" fill="#EB8F35"/>
<path fill-rule="evenodd" clip-rule="evenodd" d="M14.4605 7.05532L17.3127 9.49755L19.5018 12.2111L14.0625 12.4147L14.4605 7.05532Z" fill="#E8821E"/>
<path fill-rule="evenodd" clip-rule="evenodd" d="M15.5218 13.5679L14.7921 15.1283L17.3791 14.4499L15.5218 13.5679Z" fill="#393939"/>
<path fill-rule="evenodd" clip-rule="evenodd" d="M23.4817 0.0679016L14.4605 7.05532L15.9861 3.2563L23.4817 0.0679016Z" fill="#E88F35"/>
<path fill-rule="evenodd" clip-rule="evenodd" d="M23.4817 0.0678406L24.6757 3.79902L24.0124 7.8694L24.4767 8.14076L23.8134 8.75131L24.344 9.22619L23.6144 9.90459L24.0787 10.3116L23.0174 11.6684L18.0425 10.1081C15.6103 8.11814 14.4163 7.10055 14.4605 7.05532C14.5047 7.0101 17.5118 4.68094 23.4817 0.0678406Z" fill="#8E5A30"/>
</g>
<defs>
<clipPath id="clip0_5_13">
<rect width="25" height="22.7941" fill="white"/>
</clipPath>
</defs>
</svg>
