<svg width="25" height="25" viewBox="0 0 25 25" fill="none" xmlns="http://www.w3.org/2000/svg">
<g clip-path="url(#clip0_5_161)">
<path d="M12.5 25C19.4036 25 25 19.4036 25 12.5C25 5.59644 19.4036 0 12.5 0C5.59644 0 0 5.59644 0 12.5C0 19.4036 5.59644 25 12.5 25Z" fill="url(#paint0_linear_5_161)"/>
<path d="M21.5984 12.6786H19.3637C19.3637 8.15725 15.6588 4.49219 11.0884 4.49219C6.57445 4.49219 2.9046 8.06752 2.8148 12.5114C2.72187 17.1049 7.07832 21.0938 11.7224 21.0938H12.3065C16.4008 21.0938 21.8885 17.9232 22.7459 14.06C22.9043 13.3479 22.3355 12.6786 21.5984 12.6786ZM7.76736 12.88C7.76736 13.4846 7.26748 13.9791 6.65628 13.9791C6.04509 13.9791 5.54523 13.4844 5.54523 12.88V11.1018C5.54523 10.4972 6.04509 10.0027 6.65628 10.0027C7.26748 10.0027 7.76736 10.4972 7.76736 11.1018V12.88ZM11.6255 12.88C11.6255 13.4846 11.1256 13.9791 10.5144 13.9791C9.90322 13.9791 9.40333 13.4844 9.40333 12.88V11.1018C9.40333 10.4972 9.90343 10.0027 10.5144 10.0027C11.1256 10.0027 11.6255 10.4972 11.6255 11.1018V12.88Z" fill="url(#paint1_linear_5_161)"/>
</g>
<defs>
<linearGradient id="paint0_linear_5_161" x1="12.5" y1="0" x2="12.5" y2="25" gradientUnits="userSpaceOnUse">
<stop stop-color="#534BB1"/>
<stop offset="1" stop-color="#551BF9"/>
</linearGradient>
<linearGradient id="paint1_linear_5_161" x1="12.793" y1="4.49219" x2="12.793" y2="21.0938" gradientUnits="userSpaceOnUse">
<stop stop-color="white"/>
<stop offset="1" stop-color="white" stop-opacity="0.82"/>
</linearGradient>
<clipPath id="clip0_5_161">
<rect width="25" height="25" fill="white"/>
</clipPath>
</defs>
</svg>
