<svg width="120" height="120" viewBox="0 0 120 120" fill="none" xmlns="http://www.w3.org/2000/svg">
<path d="M63.7184 60C69.9316 60 74.9684 65.0368 74.9684 71.25L74.9625 76.8627C75.7341 90.6369 65.125 97.5061 45.4515 97.5061C25.8414 97.5061 15 90.7268 15 77.0593V71.25C15 65.0368 20.0368 60 26.25 60H63.7184ZM93.7229 60C99.9361 60 104.973 65.0368 104.973 71.25L104.967 75.1993C105.645 87.5553 96.2713 93.75 79.137 93.75C76.811 93.75 74.6245 93.6367 72.5824 93.4099C76.6077 89.6928 78.761 84.6484 78.7537 78.2743L78.7067 76.653L78.7184 71.25C78.7184 66.7682 76.7528 62.7455 73.6367 59.9969L93.7229 60ZM45 15C55.357 15 63.753 23.396 63.753 33.753C63.753 44.1101 55.357 52.5061 45 52.5061C34.643 52.5061 26.247 44.1101 26.247 33.753C26.247 23.396 34.643 15 45 15ZM82.5 22.5C90.7843 22.5 97.5 29.2157 97.5 37.5C97.5 45.7843 90.7843 52.5 82.5 52.5C74.2157 52.5 67.5 45.7843 67.5 37.5C67.5 29.2157 74.2157 22.5 82.5 22.5Z" fill="#3366FF"/>
</svg>
